<?xml version="1.0" encoding="utf-8" standalone="no"?>
<!DOCTYPE svg PUBLIC "-//W3C//DTD SVG 1.1//EN"
  "http://www.w3.org/Graphics/SVG/1.1/DTD/svg11.dtd">
<!-- Created with matplotlib (http://matplotlib.org/) -->
<svg height="396pt" version="1.1" viewBox="0 0 576 396" width="576pt" xmlns="http://www.w3.org/2000/svg" xmlns:xlink="http://www.w3.org/1999/xlink">
 <defs>
  <style type="text/css">
*{stroke-linecap:butt;stroke-linejoin:round;}
  </style>
 </defs>
 <g id="figure_1">
  <g id="patch_1">
   <path d="M 0 396 
L 576 396 
L 576 0 
L 0 0 
z
" style="fill:#ffffff;"/>
  </g>
  <g id="axes_1">
   <g id="patch_2">
    <path d="M 72 352.44 
L 518.4 352.44 
L 518.4 47.52 
L 72 47.52 
z
" style="fill:#ffffff;"/>
   </g>
   <g id="matplotlib.axis_1">
    <g id="xtick_1">
     <g id="line2d_1">
      <path clip-path="url(#p4ea58d94ad)" d="M 119.923746 352.44 
L 119.923746 47.52 
" style="fill:none;stroke:#cccccc;stroke-linecap:round;"/>
     </g>
     <g id="line2d_2"/>
     <g id="text_1">
      <!-- 62% -->
      <defs>
       <path d="M 51.21875 22.515625 
Q 51.21875 11.625 45.3125 5.3125 
Q 39.40625 -0.984375 29 -0.984375 
Q 17.390625 -0.984375 11.234375 7.65625 
Q 5.078125 16.3125 5.078125 32.8125 
Q 5.078125 50.6875 11.46875 60.25 
Q 17.875 69.828125 29.6875 69.828125 
Q 45.265625 69.828125 49.3125 55.8125 
L 40.921875 54.296875 
Q 38.328125 62.703125 29.59375 62.703125 
Q 22.078125 62.703125 17.9375 55.6875 
Q 13.8125 48.6875 13.8125 35.40625 
Q 16.21875 39.84375 20.5625 42.15625 
Q 24.90625 44.484375 30.515625 44.484375 
Q 40.046875 44.484375 45.625 38.515625 
Q 51.21875 32.5625 51.21875 22.515625 
z
M 42.28125 22.125 
Q 42.28125 29.59375 38.625 33.640625 
Q 34.96875 37.703125 28.421875 37.703125 
Q 22.265625 37.703125 18.484375 34.109375 
Q 14.703125 30.515625 14.703125 24.21875 
Q 14.703125 16.265625 18.625 11.1875 
Q 22.5625 6.109375 28.71875 6.109375 
Q 35.0625 6.109375 38.671875 10.375 
Q 42.28125 14.65625 42.28125 22.125 
z
" id="LiberationSans-36"/>
       <path d="M 5.03125 0 
L 5.03125 6.203125 
Q 7.515625 11.921875 11.109375 16.28125 
Q 14.703125 20.65625 18.65625 24.1875 
Q 22.609375 27.734375 26.484375 30.765625 
Q 30.375 33.796875 33.5 36.8125 
Q 36.625 39.84375 38.546875 43.15625 
Q 40.484375 46.484375 40.484375 50.6875 
Q 40.484375 56.34375 37.15625 59.46875 
Q 33.84375 62.59375 27.9375 62.59375 
Q 22.3125 62.59375 18.671875 59.546875 
Q 15.046875 56.5 14.40625 50.984375 
L 5.421875 51.8125 
Q 6.390625 60.0625 12.421875 64.9375 
Q 18.453125 69.828125 27.9375 69.828125 
Q 38.328125 69.828125 43.921875 64.921875 
Q 49.515625 60.015625 49.515625 50.984375 
Q 49.515625 46.96875 47.671875 43.015625 
Q 45.84375 39.0625 42.234375 35.109375 
Q 38.625 31.15625 28.421875 22.859375 
Q 22.796875 18.265625 19.46875 14.578125 
Q 16.15625 10.890625 14.703125 7.46875 
L 50.59375 7.46875 
L 50.59375 0 
z
" id="LiberationSans-32"/>
       <path d="M 85.359375 21.1875 
Q 85.359375 10.6875 81.390625 5.046875 
Q 77.4375 -0.59375 69.734375 -0.59375 
Q 62.109375 -0.59375 58.21875 4.90625 
Q 54.34375 10.40625 54.34375 21.1875 
Q 54.34375 32.328125 58.078125 37.765625 
Q 61.8125 43.21875 69.921875 43.21875 
Q 77.9375 43.21875 81.640625 37.625 
Q 85.359375 32.03125 85.359375 21.1875 
z
M 25.734375 0 
L 18.171875 0 
L 63.1875 68.796875 
L 70.84375 68.796875 
z
M 19.234375 69.390625 
Q 27 69.390625 30.75 63.921875 
Q 34.515625 58.453125 34.515625 47.609375 
Q 34.515625 37.015625 30.640625 31.296875 
Q 26.765625 25.59375 19.046875 25.59375 
Q 11.328125 25.59375 7.4375 31.25 
Q 3.5625 36.921875 3.5625 47.609375 
Q 3.5625 58.5 7.3125 63.9375 
Q 11.078125 69.390625 19.234375 69.390625 
z
M 78.125 21.1875 
Q 78.125 29.9375 76.234375 33.859375 
Q 74.359375 37.796875 69.921875 37.796875 
Q 65.484375 37.796875 63.5 33.9375 
Q 61.53125 30.078125 61.53125 21.1875 
Q 61.53125 12.84375 63.453125 8.8125 
Q 65.375 4.78125 69.828125 4.78125 
Q 74.125 4.78125 76.125 8.859375 
Q 78.125 12.9375 78.125 21.1875 
z
M 27.34375 47.609375 
Q 27.34375 56.203125 25.484375 60.15625 
Q 23.640625 64.109375 19.234375 64.109375 
Q 14.65625 64.109375 12.703125 60.21875 
Q 10.75 56.34375 10.75 47.609375 
Q 10.75 39.15625 12.703125 35.125 
Q 14.65625 31.109375 19.140625 31.109375 
Q 23.390625 31.109375 25.359375 35.203125 
Q 27.34375 39.3125 27.34375 47.609375 
z
" id="LiberationSans-25"/>
      </defs>
      <g style="fill:#262626;" transform="translate(109.916715 366.686875)scale(0.1 -0.1)">
       <use xlink:href="#LiberationSans-36"/>
       <use x="55.615234" xlink:href="#LiberationSans-32"/>
       <use x="111.230469" xlink:href="#LiberationSans-25"/>
      </g>
     </g>
    </g>
    <g id="xtick_2">
     <g id="line2d_3">
      <path clip-path="url(#p4ea58d94ad)" d="M 204.402325 352.44 
L 204.402325 47.52 
" style="fill:none;stroke:#cccccc;stroke-linecap:round;"/>
     </g>
     <g id="line2d_4"/>
     <g id="text_2">
      <!-- 62% -->
      <g style="fill:#262626;" transform="translate(194.395294 366.686875)scale(0.1 -0.1)">
       <use xlink:href="#LiberationSans-36"/>
       <use x="55.615234" xlink:href="#LiberationSans-32"/>
       <use x="111.230469" xlink:href="#LiberationSans-25"/>
      </g>
     </g>
    </g>
    <g id="xtick_3">
     <g id="line2d_5">
      <path clip-path="url(#p4ea58d94ad)" d="M 288.880904 352.44 
L 288.880904 47.52 
" style="fill:none;stroke:#cccccc;stroke-linecap:round;"/>
     </g>
     <g id="line2d_6"/>
     <g id="text_3">
      <!-- 62% -->
      <g style="fill:#262626;" transform="translate(278.873873 366.686875)scale(0.1 -0.1)">
       <use xlink:href="#LiberationSans-36"/>
       <use x="55.615234" xlink:href="#LiberationSans-32"/>
       <use x="111.230469" xlink:href="#LiberationSans-25"/>
      </g>
     </g>
    </g>
    <g id="xtick_4">
     <g id="line2d_7">
      <path clip-path="url(#p4ea58d94ad)" d="M 373.359483 352.44 
L 373.359483 47.52 
" style="fill:none;stroke:#cccccc;stroke-linecap:round;"/>
     </g>
     <g id="line2d_8"/>
     <g id="text_4">
      <!-- 62% -->
      <g style="fill:#262626;" transform="translate(363.352452 366.686875)scale(0.1 -0.1)">
       <use xlink:href="#LiberationSans-36"/>
       <use x="55.615234" xlink:href="#LiberationSans-32"/>
       <use x="111.230469" xlink:href="#LiberationSans-25"/>
      </g>
     </g>
    </g>
    <g id="xtick_5">
     <g id="line2d_9">
      <path clip-path="url(#p4ea58d94ad)" d="M 457.838062 352.44 
L 457.838062 47.52 
" style="fill:none;stroke:#cccccc;stroke-linecap:round;"/>
     </g>
     <g id="line2d_10"/>
     <g id="text_5">
      <!-- 62% -->
      <g style="fill:#262626;" transform="translate(447.831031 366.686875)scale(0.1 -0.1)">
       <use xlink:href="#LiberationSans-36"/>
       <use x="55.615234" xlink:href="#LiberationSans-32"/>
       <use x="111.230469" xlink:href="#LiberationSans-25"/>
      </g>
     </g>
    </g>
    <g id="text_6">
     <!-- Acuracy -->
     <defs>
      <path d="M 56.984375 0 
L 49.125 20.125 
L 17.78125 20.125 
L 9.859375 0 
L 0.203125 0 
L 28.265625 68.796875 
L 38.875 68.796875 
L 66.5 0 
z
M 33.453125 61.765625 
L 33.015625 60.40625 
Q 31.78125 56.34375 29.390625 50 
L 20.609375 27.390625 
L 46.34375 27.390625 
L 37.5 50.09375 
Q 36.140625 53.46875 34.765625 57.71875 
z
" id="LiberationSans-41"/>
      <path d="M 13.421875 26.65625 
Q 13.421875 16.109375 16.734375 11.03125 
Q 20.0625 5.953125 26.765625 5.953125 
Q 31.453125 5.953125 34.59375 8.484375 
Q 37.75 11.03125 38.484375 16.3125 
L 47.359375 15.71875 
Q 46.34375 8.109375 40.875 3.5625 
Q 35.40625 -0.984375 27 -0.984375 
Q 15.921875 -0.984375 10.078125 6.015625 
Q 4.25 13.03125 4.25 26.46875 
Q 4.25 39.796875 10.109375 46.796875 
Q 15.96875 53.8125 26.90625 53.8125 
Q 35.015625 53.8125 40.359375 49.609375 
Q 45.703125 45.40625 47.078125 38.03125 
L 38.03125 37.359375 
Q 37.359375 41.75 34.5625 44.328125 
Q 31.78125 46.921875 26.65625 46.921875 
Q 19.671875 46.921875 16.546875 42.28125 
Q 13.421875 37.640625 13.421875 26.65625 
z
" id="LiberationSans-63"/>
      <path d="M 15.328125 52.828125 
L 15.328125 19.34375 
Q 15.328125 14.109375 16.359375 11.21875 
Q 17.390625 8.34375 19.625 7.078125 
Q 21.875 5.8125 26.21875 5.8125 
Q 32.5625 5.8125 36.21875 10.15625 
Q 39.890625 14.5 39.890625 22.21875 
L 39.890625 52.828125 
L 48.6875 52.828125 
L 48.6875 11.28125 
Q 48.6875 2.046875 48.96875 0 
L 40.671875 0 
Q 40.625 0.25 40.578125 1.3125 
Q 40.53125 2.390625 40.453125 3.78125 
Q 40.375 5.171875 40.28125 9.03125 
L 40.140625 9.03125 
Q 37.109375 3.5625 33.125 1.28125 
Q 29.15625 -0.984375 23.25 -0.984375 
Q 14.546875 -0.984375 10.515625 3.34375 
Q 6.5 7.671875 6.5 17.625 
L 6.5 52.828125 
z
" id="LiberationSans-75"/>
      <path d="M 6.9375 0 
L 6.9375 40.53125 
Q 6.9375 46.09375 6.640625 52.828125 
L 14.9375 52.828125 
Q 15.328125 43.84375 15.328125 42.046875 
L 15.53125 42.046875 
Q 17.625 48.828125 20.359375 51.3125 
Q 23.09375 53.8125 28.078125 53.8125 
Q 29.828125 53.8125 31.640625 53.328125 
L 31.640625 45.265625 
Q 29.890625 45.75 26.953125 45.75 
Q 21.484375 45.75 18.59375 41.03125 
Q 15.71875 36.328125 15.71875 27.546875 
L 15.71875 0 
z
" id="LiberationSans-72"/>
      <path d="M 20.21875 -0.984375 
Q 12.25 -0.984375 8.25 3.21875 
Q 4.25 7.421875 4.25 14.75 
Q 4.25 22.953125 9.640625 27.34375 
Q 15.046875 31.734375 27.046875 32.03125 
L 38.921875 32.234375 
L 38.921875 35.109375 
Q 38.921875 41.546875 36.1875 44.328125 
Q 33.453125 47.125 27.59375 47.125 
Q 21.6875 47.125 19 45.109375 
Q 16.3125 43.109375 15.765625 38.71875 
L 6.59375 39.546875 
Q 8.84375 53.8125 27.78125 53.8125 
Q 37.75 53.8125 42.765625 49.234375 
Q 47.796875 44.671875 47.796875 36.03125 
L 47.796875 13.28125 
Q 47.796875 9.375 48.828125 7.390625 
Q 49.859375 5.421875 52.734375 5.421875 
Q 54 5.421875 55.609375 5.765625 
L 55.609375 0.296875 
Q 52.296875 -0.484375 48.828125 -0.484375 
Q 43.953125 -0.484375 41.71875 2.078125 
Q 39.5 4.640625 39.203125 10.109375 
L 38.921875 10.109375 
Q 35.546875 4.046875 31.078125 1.53125 
Q 26.609375 -0.984375 20.21875 -0.984375 
z
M 22.21875 5.609375 
Q 27.046875 5.609375 30.8125 7.8125 
Q 34.578125 10.015625 36.75 13.84375 
Q 38.921875 17.671875 38.921875 21.734375 
L 38.921875 26.078125 
L 29.296875 25.875 
Q 23.09375 25.78125 19.890625 24.609375 
Q 16.703125 23.4375 14.984375 21 
Q 13.28125 18.5625 13.28125 14.59375 
Q 13.28125 10.296875 15.59375 7.953125 
Q 17.921875 5.609375 22.21875 5.609375 
z
" id="LiberationSans-61"/>
      <path d="M 9.328125 -20.75 
Q 5.71875 -20.75 3.265625 -20.21875 
L 3.265625 -13.625 
Q 5.125 -13.921875 7.375 -13.921875 
Q 15.578125 -13.921875 20.359375 -1.859375 
L 21.1875 0.25 
L 0.25 52.828125 
L 9.625 52.828125 
L 20.75 23.640625 
Q 21 22.953125 21.34375 22 
Q 21.6875 21.046875 23.53125 15.625 
Q 25.390625 10.203125 25.53125 9.578125 
L 28.953125 19.1875 
L 40.53125 52.828125 
L 49.8125 52.828125 
L 29.5 0 
Q 26.21875 -8.453125 23.390625 -12.578125 
Q 20.5625 -16.703125 17.109375 -18.71875 
Q 13.671875 -20.75 9.328125 -20.75 
z
" id="LiberationSans-79"/>
     </defs>
     <g style="fill:#262626;" transform="translate(275.332969 380.733437)scale(0.11 -0.11)">
      <use xlink:href="#LiberationSans-41"/>
      <use x="66.699219" xlink:href="#LiberationSans-63"/>
      <use x="116.699219" xlink:href="#LiberationSans-75"/>
      <use x="172.314453" xlink:href="#LiberationSans-72"/>
      <use x="205.615234" xlink:href="#LiberationSans-61"/>
      <use x="261.230469" xlink:href="#LiberationSans-63"/>
      <use x="311.230469" xlink:href="#LiberationSans-79"/>
     </g>
    </g>
   </g>
   <g id="matplotlib.axis_2">
    <g id="ytick_1">
     <g id="line2d_11"/>
     <g id="text_7">
      <!-- Balanced  -->
      <defs>
       <path d="M 61.421875 19.390625 
Q 61.421875 10.203125 54.734375 5.09375 
Q 48.046875 0 36.140625 0 
L 8.203125 0 
L 8.203125 68.796875 
L 33.203125 68.796875 
Q 57.421875 68.796875 57.421875 52.09375 
Q 57.421875 46 54 41.84375 
Q 50.59375 37.703125 44.34375 36.28125 
Q 52.546875 35.296875 56.984375 30.78125 
Q 61.421875 26.265625 61.421875 19.390625 
z
M 48.046875 50.984375 
Q 48.046875 56.546875 44.234375 58.9375 
Q 40.4375 61.328125 33.203125 61.328125 
L 17.53125 61.328125 
L 17.53125 39.546875 
L 33.203125 39.546875 
Q 40.671875 39.546875 44.359375 42.359375 
Q 48.046875 45.171875 48.046875 50.984375 
z
M 52 20.125 
Q 52 32.28125 34.90625 32.28125 
L 17.53125 32.28125 
L 17.53125 7.46875 
L 35.640625 7.46875 
Q 44.1875 7.46875 48.09375 10.640625 
Q 52 13.8125 52 20.125 
z
" id="LiberationSans-42"/>
       <path d="M 6.734375 0 
L 6.734375 72.46875 
L 15.53125 72.46875 
L 15.53125 0 
z
" id="LiberationSans-6c"/>
       <path d="M 40.28125 0 
L 40.28125 33.5 
Q 40.28125 38.71875 39.25 41.59375 
Q 38.234375 44.484375 35.984375 45.75 
Q 33.734375 47.015625 29.390625 47.015625 
Q 23.046875 47.015625 19.375 42.671875 
Q 15.71875 38.328125 15.71875 30.609375 
L 15.71875 0 
L 6.9375 0 
L 6.9375 41.546875 
Q 6.9375 50.78125 6.640625 52.828125 
L 14.9375 52.828125 
Q 14.984375 52.59375 15.03125 51.515625 
Q 15.09375 50.4375 15.15625 49.046875 
Q 15.234375 47.65625 15.328125 43.796875 
L 15.484375 43.796875 
Q 18.5 49.265625 22.484375 51.53125 
Q 26.46875 53.8125 32.375 53.8125 
Q 41.0625 53.8125 45.09375 49.484375 
Q 49.125 45.171875 49.125 35.203125 
L 49.125 0 
z
" id="LiberationSans-6e"/>
       <path d="M 13.484375 24.5625 
Q 13.484375 15.484375 17.234375 10.546875 
Q 21 5.609375 28.21875 5.609375 
Q 33.9375 5.609375 37.375 7.90625 
Q 40.828125 10.203125 42.046875 13.71875 
L 49.75 11.53125 
Q 45.015625 -0.984375 28.21875 -0.984375 
Q 16.5 -0.984375 10.375 6 
Q 4.25 12.984375 4.25 26.765625 
Q 4.25 39.84375 10.375 46.828125 
Q 16.5 53.8125 27.875 53.8125 
Q 51.171875 53.8125 51.171875 25.734375 
L 51.171875 24.5625 
z
M 42.09375 31.296875 
Q 41.359375 39.65625 37.84375 43.484375 
Q 34.328125 47.3125 27.734375 47.3125 
Q 21.34375 47.3125 17.609375 43.03125 
Q 13.875 38.765625 13.578125 31.296875 
z
" id="LiberationSans-65"/>
       <path d="M 40.09375 8.5 
Q 37.640625 3.421875 33.609375 1.21875 
Q 29.59375 -0.984375 23.640625 -0.984375 
Q 13.625 -0.984375 8.90625 5.75 
Q 4.203125 12.5 4.203125 26.171875 
Q 4.203125 53.8125 23.640625 53.8125 
Q 29.640625 53.8125 33.640625 51.609375 
Q 37.640625 49.421875 40.09375 44.625 
L 40.1875 44.625 
L 40.09375 50.53125 
L 40.09375 72.46875 
L 48.875 72.46875 
L 48.875 10.890625 
Q 48.875 2.640625 49.171875 0 
L 40.765625 0 
Q 40.625 0.78125 40.453125 3.609375 
Q 40.28125 6.453125 40.28125 8.5 
z
M 13.421875 26.46875 
Q 13.421875 15.375 16.34375 10.59375 
Q 19.28125 5.8125 25.875 5.8125 
Q 33.34375 5.8125 36.71875 10.984375 
Q 40.09375 16.15625 40.09375 27.046875 
Q 40.09375 37.546875 36.71875 42.421875 
Q 33.34375 47.3125 25.984375 47.3125 
Q 19.34375 47.3125 16.375 42.40625 
Q 13.421875 37.5 13.421875 26.46875 
z
" id="LiberationSans-64"/>
       <path id="LiberationSans-20"/>
      </defs>
      <g style="fill:#262626;" transform="translate(20.525 127.373438)scale(0.1 -0.1)">
       <use xlink:href="#LiberationSans-42"/>
       <use x="66.699219" xlink:href="#LiberationSans-61"/>
       <use x="122.314453" xlink:href="#LiberationSans-6c"/>
       <use x="144.53125" xlink:href="#LiberationSans-61"/>
       <use x="200.146484" xlink:href="#LiberationSans-6e"/>
       <use x="255.761719" xlink:href="#LiberationSans-63"/>
       <use x="305.761719" xlink:href="#LiberationSans-65"/>
       <use x="361.376953" xlink:href="#LiberationSans-64"/>
       <use x="416.992188" xlink:href="#LiberationSans-20"/>
      </g>
     </g>
    </g>
    <g id="ytick_2">
     <g id="line2d_12"/>
     <g id="text_8">
      <!-- Imbalanced  -->
      <defs>
       <path d="M 9.234375 0 
L 9.234375 68.796875 
L 18.5625 68.796875 
L 18.5625 0 
z
" id="LiberationSans-49"/>
       <path d="M 37.5 0 
L 37.5 33.5 
Q 37.5 41.15625 35.390625 44.078125 
Q 33.296875 47.015625 27.828125 47.015625 
Q 22.21875 47.015625 18.9375 42.71875 
Q 15.671875 38.421875 15.671875 30.609375 
L 15.671875 0 
L 6.9375 0 
L 6.9375 41.546875 
Q 6.9375 50.78125 6.640625 52.828125 
L 14.9375 52.828125 
Q 14.984375 52.59375 15.03125 51.515625 
Q 15.09375 50.4375 15.15625 49.046875 
Q 15.234375 47.65625 15.328125 43.796875 
L 15.484375 43.796875 
Q 18.3125 49.421875 21.96875 51.609375 
Q 25.640625 53.8125 30.90625 53.8125 
Q 36.921875 53.8125 40.40625 51.421875 
Q 43.890625 49.03125 45.265625 43.796875 
L 45.40625 43.796875 
Q 48.140625 49.125 52.015625 51.46875 
Q 55.90625 53.8125 61.421875 53.8125 
Q 69.4375 53.8125 73.0625 49.46875 
Q 76.703125 45.125 76.703125 35.203125 
L 76.703125 0 
L 68.015625 0 
L 68.015625 33.5 
Q 68.015625 41.15625 65.90625 44.078125 
Q 63.8125 47.015625 58.34375 47.015625 
Q 52.59375 47.015625 49.390625 42.75 
Q 46.1875 38.484375 46.1875 30.609375 
L 46.1875 0 
z
" id="LiberationSans-6d"/>
       <path d="M 51.421875 26.65625 
Q 51.421875 -0.984375 31.984375 -0.984375 
Q 25.984375 -0.984375 22 1.1875 
Q 18.015625 3.375 15.53125 8.203125 
L 15.4375 8.203125 
Q 15.4375 6.6875 15.234375 3.578125 
Q 15.046875 0.484375 14.9375 0 
L 6.453125 0 
Q 6.734375 2.640625 6.734375 10.890625 
L 6.734375 72.46875 
L 15.53125 72.46875 
L 15.53125 51.8125 
Q 15.53125 48.640625 15.328125 44.34375 
L 15.53125 44.34375 
Q 17.96875 49.421875 22 51.609375 
Q 26.03125 53.8125 31.984375 53.8125 
Q 42 53.8125 46.703125 47.0625 
Q 51.421875 40.328125 51.421875 26.65625 
z
M 42.1875 26.375 
Q 42.1875 37.453125 39.25 42.234375 
Q 36.328125 47.015625 29.734375 47.015625 
Q 22.3125 47.015625 18.921875 41.9375 
Q 15.53125 36.859375 15.53125 25.828125 
Q 15.53125 15.4375 18.84375 10.46875 
Q 22.171875 5.515625 29.640625 5.515625 
Q 36.28125 5.515625 39.234375 10.421875 
Q 42.1875 15.328125 42.1875 26.375 
z
" id="LiberationSans-62"/>
      </defs>
      <g style="fill:#262626;" transform="translate(10.526562 279.833438)scale(0.1 -0.1)">
       <use xlink:href="#LiberationSans-49"/>
       <use x="27.783203" xlink:href="#LiberationSans-6d"/>
       <use x="111.083984" xlink:href="#LiberationSans-62"/>
       <use x="166.699219" xlink:href="#LiberationSans-61"/>
       <use x="222.314453" xlink:href="#LiberationSans-6c"/>
       <use x="244.53125" xlink:href="#LiberationSans-61"/>
       <use x="300.146484" xlink:href="#LiberationSans-6e"/>
       <use x="355.761719" xlink:href="#LiberationSans-63"/>
       <use x="405.761719" xlink:href="#LiberationSans-65"/>
       <use x="461.376953" xlink:href="#LiberationSans-64"/>
       <use x="516.992188" xlink:href="#LiberationSans-20"/>
      </g>
     </g>
    </g>
   </g>
   <g id="patch_3">
    <path clip-path="url(#p4ea58d94ad)" d="M 137.297913 62.766 
L 137.297913 184.734 
L 299.904642 184.734 
L 299.904642 62.766 
L 137.297913 62.766 
z
" style="fill:#166a8e;stroke:#313131;stroke-linejoin:miter;stroke-width:1.75;"/>
   </g>
   <g id="patch_4">
    <path clip-path="url(#p4ea58d94ad)" d="M 137.297913 215.226 
L 137.297913 337.194 
L 299.904642 337.194 
L 299.904642 215.226 
L 137.297913 215.226 
z
" style="fill:#9eba81;stroke:#313131;stroke-linejoin:miter;stroke-width:1.75;"/>
   </g>
   <g id="line2d_13">
    <path clip-path="url(#p4ea58d94ad)" d="M 137.297913 123.75 
L 92.290909 123.75 
" style="fill:none;stroke:#313131;stroke-linecap:round;stroke-width:1.75;"/>
   </g>
   <g id="line2d_14">
    <path clip-path="url(#p4ea58d94ad)" d="M 299.904642 123.75 
L 498.109091 123.75 
" style="fill:none;stroke:#313131;stroke-linecap:round;stroke-width:1.75;"/>
   </g>
   <g id="line2d_15">
    <path clip-path="url(#p4ea58d94ad)" d="M 92.290909 93.258 
L 92.290909 154.242 
" style="fill:none;stroke:#313131;stroke-linecap:round;stroke-width:1.75;"/>
   </g>
   <g id="line2d_16">
    <path clip-path="url(#p4ea58d94ad)" d="M 498.109091 93.258 
L 498.109091 154.242 
" style="fill:none;stroke:#313131;stroke-linecap:round;stroke-width:1.75;"/>
   </g>
   <g id="line2d_17"/>
   <g id="line2d_18">
    <path clip-path="url(#p4ea58d94ad)" d="M 137.297913 276.21 
L 92.290909 276.21 
" style="fill:none;stroke:#313131;stroke-linecap:round;stroke-width:1.75;"/>
   </g>
   <g id="line2d_19">
    <path clip-path="url(#p4ea58d94ad)" d="M 299.904642 276.21 
L 498.109091 276.21 
" style="fill:none;stroke:#313131;stroke-linecap:round;stroke-width:1.75;"/>
   </g>
   <g id="line2d_20">
    <path clip-path="url(#p4ea58d94ad)" d="M 92.290909 245.718 
L 92.290909 306.702 
" style="fill:none;stroke:#313131;stroke-linecap:round;stroke-width:1.75;"/>
   </g>
   <g id="line2d_21">
    <path clip-path="url(#p4ea58d94ad)" d="M 498.109091 245.718 
L 498.109091 306.702 
" style="fill:none;stroke:#313131;stroke-linecap:round;stroke-width:1.75;"/>
   </g>
   <g id="line2d_22"/>
   <g id="line2d_23">
    <path clip-path="url(#p4ea58d94ad)" d="M 290.029222 62.766 
L 290.029222 184.734 
" style="fill:none;stroke:#313131;stroke-linecap:round;stroke-width:1.75;"/>
   </g>
   <g id="line2d_24">
    <path clip-path="url(#p4ea58d94ad)" d="M 290.029222 215.226 
L 290.029222 337.194 
" style="fill:none;stroke:#313131;stroke-linecap:round;stroke-width:1.75;"/>
   </g>
   <g id="patch_5">
    <path d="M 72 352.44 
L 518.4 352.44 
" style="fill:none;stroke:#cccccc;stroke-linecap:square;stroke-linejoin:miter;stroke-width:1.25;"/>
   </g>
   <g id="text_9">
    <!-- Difference in terms of acuracy with MNB -->
    <defs>
     <path d="M 67.4375 35.109375 
Q 67.4375 24.46875 63.28125 16.484375 
Q 59.125 8.5 51.5 4.25 
Q 43.890625 0 33.9375 0 
L 8.203125 0 
L 8.203125 68.796875 
L 30.953125 68.796875 
Q 48.4375 68.796875 57.9375 60.03125 
Q 67.4375 51.265625 67.4375 35.109375 
z
M 58.0625 35.109375 
Q 58.0625 47.90625 51.046875 54.609375 
Q 44.046875 61.328125 30.765625 61.328125 
L 17.53125 61.328125 
L 17.53125 7.46875 
L 32.859375 7.46875 
Q 40.4375 7.46875 46.171875 10.78125 
Q 51.90625 14.109375 54.984375 20.359375 
Q 58.0625 26.609375 58.0625 35.109375 
z
" id="LiberationSans-44"/>
     <path d="M 6.6875 64.0625 
L 6.6875 72.46875 
L 15.484375 72.46875 
L 15.484375 64.0625 
z
M 6.6875 0 
L 6.6875 52.828125 
L 15.484375 52.828125 
L 15.484375 0 
z
" id="LiberationSans-69"/>
     <path d="M 17.625 46.4375 
L 17.625 0 
L 8.84375 0 
L 8.84375 46.4375 
L 1.421875 46.4375 
L 1.421875 52.828125 
L 8.84375 52.828125 
L 8.84375 58.796875 
Q 8.84375 66.015625 12.015625 69.1875 
Q 15.1875 72.359375 21.734375 72.359375 
Q 25.390625 72.359375 27.9375 71.78125 
L 27.9375 65.09375 
Q 25.734375 65.484375 24.03125 65.484375 
Q 20.65625 65.484375 19.140625 63.765625 
Q 17.625 62.0625 17.625 57.5625 
L 17.625 52.828125 
L 27.9375 52.828125 
L 27.9375 46.4375 
z
" id="LiberationSans-66"/>
     <path d="M 27.046875 0.390625 
Q 22.703125 -0.78125 18.171875 -0.78125 
Q 7.625 -0.78125 7.625 11.1875 
L 7.625 46.4375 
L 1.515625 46.4375 
L 1.515625 52.828125 
L 7.953125 52.828125 
L 10.546875 64.65625 
L 16.40625 64.65625 
L 16.40625 52.828125 
L 26.171875 52.828125 
L 26.171875 46.4375 
L 16.40625 46.4375 
L 16.40625 13.09375 
Q 16.40625 9.28125 17.640625 7.734375 
Q 18.890625 6.203125 21.96875 6.203125 
Q 23.734375 6.203125 27.046875 6.890625 
z
" id="LiberationSans-74"/>
     <path d="M 46.390625 14.59375 
Q 46.390625 7.125 40.75 3.0625 
Q 35.109375 -0.984375 24.953125 -0.984375 
Q 15.09375 -0.984375 9.734375 2.265625 
Q 4.390625 5.515625 2.78125 12.40625 
L 10.546875 13.921875 
Q 11.671875 9.671875 15.1875 7.6875 
Q 18.703125 5.71875 24.953125 5.71875 
Q 31.640625 5.71875 34.734375 7.765625 
Q 37.84375 9.8125 37.84375 13.921875 
Q 37.84375 17.046875 35.6875 19 
Q 33.546875 20.953125 28.765625 22.21875 
L 22.46875 23.875 
Q 14.890625 25.828125 11.6875 27.703125 
Q 8.5 29.59375 6.6875 32.28125 
Q 4.890625 34.96875 4.890625 38.875 
Q 4.890625 46.09375 10.03125 49.875 
Q 15.1875 53.65625 25.046875 53.65625 
Q 33.796875 53.65625 38.9375 50.578125 
Q 44.09375 47.515625 45.453125 40.71875 
L 37.546875 39.75 
Q 36.8125 43.265625 33.609375 45.140625 
Q 30.421875 47.015625 25.046875 47.015625 
Q 19.09375 47.015625 16.25 45.203125 
Q 13.421875 43.40625 13.421875 39.75 
Q 13.421875 37.5 14.59375 36.03125 
Q 15.765625 34.578125 18.0625 33.546875 
Q 20.359375 32.515625 27.734375 30.71875 
Q 34.71875 28.953125 37.796875 27.46875 
Q 40.875 25.984375 42.65625 24.171875 
Q 44.4375 22.359375 45.40625 19.984375 
Q 46.390625 17.625 46.390625 14.59375 
z
" id="LiberationSans-73"/>
     <path d="M 51.421875 26.46875 
Q 51.421875 12.59375 45.3125 5.796875 
Q 39.203125 -0.984375 27.59375 -0.984375 
Q 16.015625 -0.984375 10.109375 6.078125 
Q 4.203125 13.140625 4.203125 26.46875 
Q 4.203125 53.8125 27.875 53.8125 
Q 39.984375 53.8125 45.703125 47.140625 
Q 51.421875 40.484375 51.421875 26.46875 
z
M 42.1875 26.46875 
Q 42.1875 37.40625 38.9375 42.359375 
Q 35.6875 47.3125 28.03125 47.3125 
Q 20.3125 47.3125 16.859375 42.25 
Q 13.421875 37.203125 13.421875 26.46875 
Q 13.421875 16.015625 16.8125 10.765625 
Q 20.21875 5.515625 27.484375 5.515625 
Q 35.40625 5.515625 38.796875 10.59375 
Q 42.1875 15.671875 42.1875 26.46875 
z
" id="LiberationSans-6f"/>
     <path d="M 57.328125 0 
L 47.125 0 
L 37.890625 37.359375 
L 36.140625 45.609375 
Q 35.6875 43.40625 34.765625 39.28125 
Q 33.84375 35.15625 24.8125 0 
L 14.65625 0 
L -0.140625 52.828125 
L 8.546875 52.828125 
L 17.484375 16.9375 
Q 17.828125 15.765625 19.578125 7.28125 
L 20.40625 10.890625 
L 31.453125 52.828125 
L 40.875 52.828125 
L 50.09375 16.546875 
L 52.34375 7.28125 
L 53.859375 14.0625 
L 63.875 52.828125 
L 72.46875 52.828125 
z
" id="LiberationSans-77"/>
     <path d="M 15.484375 43.796875 
Q 18.3125 48.96875 22.28125 51.390625 
Q 26.265625 53.8125 32.375 53.8125 
Q 40.96875 53.8125 45.046875 49.53125 
Q 49.125 45.265625 49.125 35.203125 
L 49.125 0 
L 40.28125 0 
L 40.28125 33.5 
Q 40.28125 39.0625 39.25 41.765625 
Q 38.234375 44.484375 35.890625 45.75 
Q 33.546875 47.015625 29.390625 47.015625 
Q 23.1875 47.015625 19.453125 42.71875 
Q 15.71875 38.421875 15.71875 31.15625 
L 15.71875 0 
L 6.9375 0 
L 6.9375 72.46875 
L 15.71875 72.46875 
L 15.71875 53.609375 
Q 15.71875 50.640625 15.546875 47.453125 
Q 15.375 44.28125 15.328125 43.796875 
z
" id="LiberationSans-68"/>
     <path d="M 66.703125 0 
L 66.703125 45.90625 
Q 66.703125 53.515625 67.140625 60.546875 
Q 64.75 51.8125 62.84375 46.875 
L 45.0625 0 
L 38.53125 0 
L 20.515625 46.875 
L 17.78125 55.171875 
L 16.15625 60.546875 
L 16.3125 55.125 
L 16.5 45.90625 
L 16.5 0 
L 8.203125 0 
L 8.203125 68.796875 
L 20.453125 68.796875 
L 38.765625 21.09375 
Q 39.75 18.21875 40.640625 14.921875 
Q 41.546875 11.625 41.84375 10.15625 
Q 42.234375 12.109375 43.484375 16.078125 
Q 44.734375 20.0625 45.171875 21.09375 
L 63.140625 68.796875 
L 75.09375 68.796875 
L 75.09375 0 
z
" id="LiberationSans-4d"/>
     <path d="M 52.828125 0 
L 16.015625 58.59375 
L 16.265625 53.859375 
L 16.5 45.703125 
L 16.5 0 
L 8.203125 0 
L 8.203125 68.796875 
L 19.046875 68.796875 
L 56.25 9.8125 
Q 55.671875 19.390625 55.671875 23.6875 
L 55.671875 68.796875 
L 64.0625 68.796875 
L 64.0625 0 
z
" id="LiberationSans-4e"/>
    </defs>
    <g style="fill:#262626;" transform="translate(188.173125 41.52)scale(0.12 -0.12)">
     <use xlink:href="#LiberationSans-44"/>
     <use x="72.216797" xlink:href="#LiberationSans-69"/>
     <use x="94.433594" xlink:href="#LiberationSans-66"/>
     <use x="122.201172" xlink:href="#LiberationSans-66"/>
     <use x="149.984375" xlink:href="#LiberationSans-65"/>
     <use x="205.599609" xlink:href="#LiberationSans-72"/>
     <use x="238.900391" xlink:href="#LiberationSans-65"/>
     <use x="294.515625" xlink:href="#LiberationSans-6e"/>
     <use x="350.130859" xlink:href="#LiberationSans-63"/>
     <use x="400.130859" xlink:href="#LiberationSans-65"/>
     <use x="455.746094" xlink:href="#LiberationSans-20"/>
     <use x="483.529297" xlink:href="#LiberationSans-69"/>
     <use x="505.746094" xlink:href="#LiberationSans-6e"/>
     <use x="561.361328" xlink:href="#LiberationSans-20"/>
     <use x="589.144531" xlink:href="#LiberationSans-74"/>
     <use x="616.927734" xlink:href="#LiberationSans-65"/>
     <use x="672.542969" xlink:href="#LiberationSans-72"/>
     <use x="705.84375" xlink:href="#LiberationSans-6d"/>
     <use x="789.144531" xlink:href="#LiberationSans-73"/>
     <use x="839.144531" xlink:href="#LiberationSans-20"/>
     <use x="866.927734" xlink:href="#LiberationSans-6f"/>
     <use x="922.542969" xlink:href="#LiberationSans-66"/>
     <use x="950.326172" xlink:href="#LiberationSans-20"/>
     <use x="978.109375" xlink:href="#LiberationSans-61"/>
     <use x="1033.724609" xlink:href="#LiberationSans-63"/>
     <use x="1083.724609" xlink:href="#LiberationSans-75"/>
     <use x="1139.339844" xlink:href="#LiberationSans-72"/>
     <use x="1172.640625" xlink:href="#LiberationSans-61"/>
     <use x="1228.255859" xlink:href="#LiberationSans-63"/>
     <use x="1278.255859" xlink:href="#LiberationSans-79"/>
     <use x="1328.255859" xlink:href="#LiberationSans-20"/>
     <use x="1356.039062" xlink:href="#LiberationSans-77"/>
     <use x="1428.255859" xlink:href="#LiberationSans-69"/>
     <use x="1450.472656" xlink:href="#LiberationSans-74"/>
     <use x="1478.255859" xlink:href="#LiberationSans-68"/>
     <use x="1533.871094" xlink:href="#LiberationSans-20"/>
     <use x="1561.654297" xlink:href="#LiberationSans-4d"/>
     <use x="1644.955078" xlink:href="#LiberationSans-4e"/>
     <use x="1717.171875" xlink:href="#LiberationSans-42"/>
    </g>
   </g>
  </g>
 </g>
 <defs>
  <clipPath id="p4ea58d94ad">
   <rect height="304.92" width="446.4" x="72" y="47.52"/>
  </clipPath>
 </defs>
</svg>
